<svg width="336" height="384" viewBox="0 0 336 384" fill="none" xmlns="http://www.w3.org/2000/svg">
<mask id="mask0_1_210" style="mask-type:luminance" maskUnits="userSpaceOnUse" x="0" y="0" width="336" height="384">
<path d="M336 0H0V384H336V0Z" fill="white"/>
</mask>
<g mask="url(#mask0_1_210)">
<mask id="mask1_1_210" style="mask-type:luminance" maskUnits="userSpaceOnUse" x="0" y="68" width="198" height="248">
<path d="M0.588501 68H197.334V316H0.588501V68Z" fill="white"/>
</mask>
<g mask="url(#mask1_1_210)">
<mask id="mask2_1_210" style="mask-type:luminance" maskUnits="userSpaceOnUse" x="0" y="68" width="198" height="248">
<path d="M197.334 68H0V316H197.334V68Z" fill="white"/>
</mask>
<g mask="url(#mask2_1_210)">
<mask id="mask3_1_210" style="mask-type:luminance" maskUnits="userSpaceOnUse" x="4" y="68" width="190" height="186">
<path d="M4 68.318H193.334V253.333H4V68.318Z" fill="white"/>
</mask>
<g mask="url(#mask3_1_210)">
<path d="M50.6697 252.237H9.56551C7.46651 252.237 6.07071 251.544 5.37801 250.153C4.68011 248.752 4.68011 247.174 5.37801 245.424L81.3157 75.737C82.1907 73.82 83.4507 72.211 85.1067 70.903C86.7737 69.586 88.4817 68.924 90.2317 68.924H106.191C108.467 68.924 110.43 69.586 112.087 70.903C113.753 72.211 114.93 73.82 115.628 75.737L191.566 245.424C192.258 247.174 192.258 248.752 191.566 250.153C190.868 251.544 189.472 252.237 187.378 252.237H149.149C146.868 252.237 144.946 251.586 143.378 250.278C141.805 248.961 140.587 247.341 139.712 245.424L120.337 202.216H37.0657L56.4407 245.424C57.3157 247.341 57.2737 248.961 56.3157 250.278C55.3567 251.586 53.4717 252.237 50.6697 252.237ZM118.774 198.549L74.5027 99.299L32.8777 192.799L35.4817 198.549H118.774Z" fill="white"/>
</g>
</g>
</g>
<path d="M286.635 64.68H327.761C329.859 64.68 331.255 65.373 331.948 66.763C332.646 68.164 332.646 69.742 331.948 71.492L256.01 241.201C255.135 243.117 253.875 244.727 252.219 246.034C250.552 247.352 248.844 248.013 247.094 248.013H231.115C228.854 248.013 226.896 247.352 225.24 246.034C223.573 244.727 222.396 243.117 221.698 241.201L145.74 71.492C145.047 69.742 145.047 68.164 145.74 66.763C146.438 65.373 147.833 64.68 149.927 64.68H188.177C190.443 64.68 192.359 65.331 193.927 66.638C195.5 67.956 196.719 69.576 197.594 71.492L216.969 114.701H300.261L280.885 71.492C280.01 69.576 280.052 67.956 281.01 66.638C281.969 65.331 283.844 64.68 286.635 64.68ZM218.552 118.367L262.802 217.617L304.448 124.138L301.823 118.367H218.552Z" fill="#02578E"/>
<path d="M106.693 327.423H81.9837L76.6717 339.256H71.7967L92.0677 294.944H96.6717L116.943 339.256H112.005L106.693 327.423ZM104.984 323.61L94.3377 299.819L83.6927 323.61H104.984Z" fill="white"/>
<path d="M152.21 316.402C155.111 317.043 157.356 318.298 158.94 320.173C160.523 322.048 161.315 324.464 161.315 327.423C161.315 331.214 159.908 334.141 157.106 336.194C154.299 338.235 150.153 339.256 144.669 339.256H124.273V294.944H143.398C148.341 294.944 152.174 295.938 154.898 297.923C157.617 299.897 158.981 302.704 158.981 306.339C158.981 308.787 158.377 310.86 157.169 312.569C155.971 314.277 154.32 315.558 152.21 316.402ZM128.96 298.798V314.881H143.085C146.669 314.881 149.429 314.194 151.377 312.819C153.32 311.444 154.294 309.454 154.294 306.839C154.294 304.23 153.32 302.235 151.377 300.86C149.429 299.485 146.669 298.798 143.085 298.798H128.96ZM144.606 335.402C148.575 335.402 151.57 334.73 153.585 333.381C155.611 332.022 156.627 329.902 156.627 327.027C156.627 321.501 152.617 318.735 144.606 318.735H128.96V335.402H144.606Z" fill="white"/>
<path d="M172.008 294.944H176.696V339.256H172.008V294.944Z" fill="white"/>
<path d="M199.753 298.985H184.169V294.944H220.003V298.985H204.44V339.256H199.753V298.985Z" fill="white"/>
<path d="M255.28 327.423H230.571L225.259 339.256H220.384L240.655 294.944H245.259L265.53 339.256H260.592L255.28 327.423ZM253.571 323.61L242.925 299.819L232.28 323.61H253.571Z" fill="white"/>
<path d="M75.1677 378.263C73.6107 378.263 72.1937 377.919 70.9177 377.221C69.6367 376.513 68.6367 375.549 67.9177 374.325C67.2097 373.106 66.8557 371.737 66.8557 370.221C66.8557 368.695 67.2097 367.325 67.9177 366.117C68.6367 364.898 69.6367 363.94 70.9177 363.242C72.1937 362.533 73.6107 362.179 75.1677 362.179C76.7357 362.179 78.1467 362.528 79.3967 363.221C80.6577 363.903 81.6527 364.862 82.3757 366.096C83.0947 367.32 83.4597 368.695 83.4597 370.221C83.4597 371.737 83.0947 373.112 82.3757 374.346C81.6527 375.57 80.6577 376.528 79.3967 377.221C78.1467 377.919 76.7357 378.263 75.1677 378.263ZM75.1677 376.763C76.4177 376.763 77.5477 376.487 78.5637 375.929C79.5737 375.362 80.3657 374.575 80.9387 373.575C81.5067 372.565 81.7927 371.445 81.7927 370.221C81.7927 368.987 81.5067 367.867 80.9387 366.867C80.3657 365.867 79.5737 365.086 78.5637 364.513C77.5477 363.945 76.4177 363.658 75.1677 363.658C73.9177 363.658 72.7827 363.945 71.7717 364.513C70.7567 365.086 69.9597 365.867 69.3757 366.867C68.7927 367.867 68.5007 368.987 68.5007 370.221C68.5007 371.445 68.7927 372.565 69.3757 373.575C69.9597 374.575 70.7567 375.362 71.7717 375.929C72.7827 376.487 73.9177 376.763 75.1677 376.763Z" fill="white"/>
<path d="M92.9407 362.596C92.2427 362.596 91.7167 362.783 91.3577 363.158C91.0087 363.533 90.8367 364.096 90.8367 364.846V366.242H94.5037V367.596H90.8787V378.117H89.2747V367.596H87.1497V366.242H89.2747V364.763C89.2747 363.679 89.5867 362.825 90.2117 362.2C90.8367 361.565 91.7227 361.242 92.8787 361.242C93.3217 361.242 93.7537 361.315 94.1707 361.45C94.5977 361.575 94.9517 361.757 95.2327 361.992L94.6907 363.179C94.2327 362.794 93.6497 362.596 92.9407 362.596Z" fill="white"/>
<path d="M102.74 362.596C102.042 362.596 101.516 362.783 101.157 363.158C100.808 363.533 100.636 364.096 100.636 364.846V366.242H104.303V367.596H100.678V378.117H99.0737V367.596H96.9487V366.242H99.0737V364.763C99.0737 363.679 99.3857 362.825 100.011 362.2C100.636 361.565 101.522 361.242 102.678 361.242C103.12 361.242 103.553 361.315 103.969 361.45C104.397 361.575 104.751 361.757 105.032 361.992L104.49 363.179C104.032 362.794 103.449 362.596 102.74 362.596Z" fill="white"/>
<path d="M108.602 366.242H110.206V378.117H108.602V366.242ZM109.435 363.638C109.102 363.638 108.815 363.528 108.581 363.304C108.357 363.086 108.247 362.815 108.247 362.492C108.247 362.19 108.357 361.924 108.581 361.7C108.815 361.481 109.102 361.367 109.435 361.367C109.768 361.367 110.044 361.481 110.268 361.7C110.487 361.908 110.602 362.169 110.602 362.471C110.602 362.804 110.487 363.086 110.268 363.304C110.044 363.528 109.768 363.638 109.435 363.638Z" fill="white"/>
<path d="M121.758 378.221C120.576 378.221 119.518 377.971 118.591 377.471C117.675 376.961 116.951 376.237 116.425 375.304C115.893 374.377 115.633 373.336 115.633 372.179C115.633 371.013 115.893 369.971 116.425 369.054C116.951 368.138 117.675 367.424 118.591 366.908C119.518 366.398 120.576 366.138 121.758 366.138C122.768 366.138 123.68 366.341 124.487 366.742C125.289 367.148 125.93 367.731 126.404 368.492L125.195 369.304C124.805 368.721 124.31 368.283 123.716 367.992C123.117 367.7 122.466 367.554 121.758 367.554C120.893 367.554 120.117 367.752 119.425 368.138C118.742 368.513 118.206 369.054 117.82 369.763C117.445 370.471 117.258 371.278 117.258 372.179C117.258 373.096 117.445 373.908 117.82 374.617C118.206 375.315 118.742 375.856 119.425 376.242C120.117 376.617 120.893 376.804 121.758 376.804C122.466 376.804 123.117 376.669 123.716 376.388C124.31 376.096 124.805 375.658 125.195 375.075L126.404 375.888C125.93 376.653 125.284 377.237 124.466 377.638C123.659 378.028 122.758 378.221 121.758 378.221Z" fill="white"/>
<path d="M142.03 372.679H132.092C132.176 373.919 132.645 374.919 133.509 375.679C134.368 376.429 135.452 376.804 136.759 376.804C137.493 376.804 138.165 376.674 138.78 376.408C139.405 376.148 139.947 375.757 140.405 375.242L141.301 376.283C140.77 376.924 140.113 377.408 139.322 377.742C138.53 378.065 137.66 378.221 136.717 378.221C135.493 378.221 134.41 377.966 133.467 377.45C132.535 376.94 131.806 376.221 131.28 375.304C130.749 374.377 130.488 373.336 130.488 372.179C130.488 371.013 130.738 369.971 131.238 369.054C131.738 368.138 132.426 367.424 133.301 366.908C134.186 366.398 135.181 366.138 136.28 366.138C137.389 366.138 138.374 366.398 139.238 366.908C140.113 367.424 140.801 368.138 141.301 369.054C141.801 369.961 142.051 371.002 142.051 372.179L142.03 372.679ZM136.28 367.533C135.139 367.533 134.181 367.903 133.405 368.638C132.624 369.362 132.186 370.304 132.092 371.471H140.509C140.41 370.304 139.973 369.362 139.197 368.638C138.415 367.903 137.447 367.533 136.28 367.533Z" fill="white"/>
<path d="M167.184 378.367L164.997 376.117C163.648 377.549 161.882 378.263 159.705 378.263C158.674 378.263 157.757 378.096 156.955 377.763C156.148 377.419 155.517 376.94 155.059 376.325C154.611 375.716 154.392 375.023 154.392 374.242C154.392 373.283 154.689 372.429 155.288 371.679C155.898 370.929 156.924 370.138 158.372 369.304C157.622 368.528 157.101 367.867 156.809 367.325C156.528 366.773 156.392 366.179 156.392 365.554C156.392 364.554 156.752 363.752 157.476 363.138C158.194 362.513 159.163 362.2 160.372 362.2C161.507 362.2 162.403 362.481 163.059 363.033C163.726 363.591 164.059 364.356 164.059 365.325C164.059 366.117 163.793 366.825 163.267 367.45C162.736 368.075 161.83 368.763 160.538 369.513L164.872 373.992C165.356 373.132 165.71 372.112 165.934 370.929L167.247 371.346C166.955 372.763 166.486 373.971 165.851 374.971L168.101 377.304L167.184 378.367ZM160.372 363.388C159.59 363.388 158.981 363.591 158.538 363.992C158.09 364.382 157.872 364.898 157.872 365.533C157.872 366.007 157.986 366.461 158.226 366.888C158.476 367.304 158.955 367.877 159.663 368.596C160.799 367.929 161.585 367.367 162.017 366.908C162.46 366.44 162.684 365.924 162.684 365.367C162.684 364.757 162.476 364.278 162.059 363.929C161.653 363.57 161.09 363.388 160.372 363.388ZM159.788 376.929C161.538 376.929 162.955 376.336 164.038 375.138L159.267 370.242C158.017 370.95 157.153 371.591 156.684 372.158C156.21 372.731 155.976 373.367 155.976 374.075C155.976 374.94 156.319 375.632 157.017 376.158C157.726 376.674 158.648 376.929 159.788 376.929Z" fill="white"/>
<path d="M181.18 362.304H187.618C189.285 362.304 190.753 362.648 192.035 363.325C193.311 363.992 194.305 364.924 195.014 366.117C195.722 367.315 196.076 368.679 196.076 370.221C196.076 371.752 195.722 373.117 195.014 374.325C194.305 375.523 193.311 376.45 192.035 377.117C190.753 377.783 189.285 378.117 187.618 378.117H181.18V362.304ZM187.514 376.679C188.899 376.679 190.107 376.403 191.139 375.846C192.18 375.294 192.982 374.533 193.555 373.575C194.139 372.606 194.43 371.487 194.43 370.221C194.43 368.961 194.139 367.841 193.555 366.867C192.982 365.898 192.18 365.138 191.139 364.596C190.107 364.044 188.899 363.763 187.514 363.763H182.847V376.679H187.514Z" fill="white"/>
<path d="M211.973 372.679H202.035C202.118 373.919 202.587 374.919 203.452 375.679C204.311 376.429 205.395 376.804 206.702 376.804C207.436 376.804 208.108 376.674 208.723 376.408C209.348 376.148 209.889 375.757 210.348 375.242L211.243 376.283C210.712 376.924 210.056 377.408 209.264 377.742C208.473 378.065 207.603 378.221 206.66 378.221C205.436 378.221 204.353 377.966 203.41 377.45C202.478 376.94 201.749 376.221 201.223 375.304C200.691 374.377 200.431 373.336 200.431 372.179C200.431 371.013 200.681 369.971 201.181 369.054C201.681 368.138 202.368 367.424 203.243 366.908C204.129 366.398 205.124 366.138 206.223 366.138C207.332 366.138 208.316 366.398 209.181 366.908C210.056 367.424 210.743 368.138 211.243 369.054C211.743 369.961 211.993 371.002 211.993 372.179L211.973 372.679ZM206.223 367.533C205.082 367.533 204.124 367.903 203.348 368.638C202.566 369.362 202.129 370.304 202.035 371.471H210.452C210.353 370.304 209.915 369.362 209.139 368.638C208.358 367.903 207.389 367.533 206.223 367.533Z" fill="white"/>
<path d="M220.587 378.221C219.629 378.221 218.701 378.086 217.816 377.804C216.941 377.528 216.254 377.179 215.754 376.763L216.483 375.492C216.983 375.882 217.608 376.2 218.358 376.45C219.108 376.7 219.889 376.825 220.712 376.825C221.795 376.825 222.592 376.658 223.108 376.325C223.618 375.981 223.879 375.502 223.879 374.888C223.879 374.461 223.733 374.117 223.441 373.867C223.16 373.617 222.8 373.429 222.358 373.304C221.925 373.169 221.347 373.044 220.629 372.929C219.67 372.752 218.889 372.57 218.295 372.388C217.712 372.195 217.212 371.877 216.795 371.429C216.389 370.971 216.191 370.341 216.191 369.533C216.191 368.549 216.597 367.737 217.42 367.096C218.254 366.461 219.405 366.138 220.879 366.138C221.655 366.138 222.425 366.242 223.191 366.45C223.951 366.658 224.587 366.929 225.087 367.263L224.379 368.533C223.405 367.867 222.238 367.533 220.879 367.533C219.863 367.533 219.092 367.716 218.566 368.075C218.05 368.44 217.795 368.908 217.795 369.492C217.795 369.94 217.941 370.299 218.233 370.575C218.524 370.841 218.884 371.044 219.316 371.179C219.759 371.304 220.363 371.44 221.129 371.575C222.071 371.757 222.826 371.94 223.399 372.117C223.983 372.299 224.472 372.612 224.879 373.054C225.28 373.487 225.483 374.086 225.483 374.846C225.483 375.888 225.05 376.716 224.191 377.325C223.326 377.924 222.129 378.221 220.587 378.221Z" fill="white"/>
<path d="M230.584 366.242H232.188V378.117H230.584V366.242ZM231.418 363.638C231.084 363.638 230.798 363.528 230.563 363.304C230.34 363.086 230.23 362.815 230.23 362.492C230.23 362.19 230.34 361.924 230.563 361.7C230.798 361.481 231.084 361.367 231.418 361.367C231.751 361.367 232.027 361.481 232.251 361.7C232.47 361.908 232.584 362.169 232.584 362.471C232.584 362.804 232.47 363.086 232.251 363.304C232.027 363.528 231.751 363.638 231.418 363.638Z" fill="white"/>
<path d="M249.803 366.242V376.679C249.803 378.69 249.308 380.184 248.324 381.158C247.334 382.127 245.85 382.617 243.866 382.617C242.767 382.617 241.725 382.45 240.741 382.117C239.751 381.794 238.954 381.351 238.345 380.783L239.157 379.554C239.725 380.065 240.418 380.461 241.241 380.742C242.058 381.033 242.918 381.179 243.824 381.179C245.324 381.179 246.428 380.83 247.136 380.138C247.845 379.44 248.199 378.351 248.199 376.867V375.367C247.699 376.117 247.043 376.69 246.241 377.075C245.433 377.466 244.543 377.658 243.574 377.658C242.459 377.658 241.449 377.419 240.532 376.929C239.626 376.445 238.912 375.763 238.386 374.888C237.871 374.002 237.616 373.002 237.616 371.888C237.616 370.778 237.871 369.783 238.386 368.908C238.912 368.033 239.626 367.356 240.532 366.867C241.433 366.382 242.449 366.138 243.574 366.138C244.584 366.138 245.496 366.346 246.303 366.763C247.121 367.169 247.782 367.752 248.282 368.513V366.242H249.803ZM243.741 376.242C244.584 376.242 245.355 376.065 246.053 375.7C246.746 375.325 247.282 374.815 247.657 374.158C248.043 373.492 248.241 372.737 248.241 371.888C248.241 371.044 248.043 370.294 247.657 369.638C247.282 368.987 246.746 368.481 246.053 368.117C245.371 367.742 244.6 367.554 243.741 367.554C242.876 367.554 242.1 367.737 241.407 368.096C240.725 368.461 240.188 368.971 239.803 369.638C239.428 370.294 239.241 371.044 239.241 371.888C239.241 372.737 239.428 373.492 239.803 374.158C240.188 374.815 240.725 375.325 241.407 375.7C242.1 376.065 242.876 376.242 243.741 376.242Z" fill="white"/>
<path d="M262.497 366.138C263.982 366.138 265.164 366.575 266.039 367.45C266.925 368.315 267.372 369.57 267.372 371.221V378.117H265.768V371.388C265.768 370.153 265.456 369.216 264.831 368.575C264.216 367.924 263.341 367.596 262.206 367.596C260.925 367.596 259.914 367.981 259.164 368.742C258.414 369.492 258.039 370.544 258.039 371.888V378.117H256.435V366.242H257.977V368.429C258.404 367.711 259.008 367.148 259.789 366.742C260.565 366.341 261.466 366.138 262.497 366.138Z" fill="white"/>
</g>
</svg>
