<svg xmlns="http://www.w3.org/2000/svg" xmlns:xlink="http://www.w3.org/1999/xlink" width="258" zoomAndPan="magnify" viewBox="58 81 258 251" height="251" preserveAspectRatio="xMidYMid meet" version="1.0"><defs><g/><clipPath id="2bf85507f0"><path d="M 0.441406 51 L 148 51 L 148 237 L 0.441406 237 Z M 0.441406 51 " clip-rule="nonzero"/></clipPath><clipPath id="7eb738726e"><path d="M 3 0.238281 L 145 0.238281 L 145 139 L 3 139 Z M 3 0.238281 " clip-rule="nonzero"/></clipPath><clipPath id="04bd3b825c"><rect x="0" width="148" y="0" height="186"/></clipPath><clipPath id="83397c3355"><rect x="0" width="252" y="0" height="288"/></clipPath></defs><g transform="matrix(1, 0, 0, 1, 61, 39)"><g clip-path="url(#83397c3355)"><g clip-path="url(#2bf85507f0)"><g transform="matrix(1, 0, 0, 1, 0, 51)"><g clip-path="url(#04bd3b825c)"><g clip-path="url(#7eb738726e)"><g fill="#ffffff" fill-opacity="1"><g transform="translate(1.674084, 138.177423)"><g><path d="M 36.328125 0 L 5.5 0 C 3.925781 0 2.878906 -0.519531 2.359375 -1.5625 C 1.835938 -2.613281 1.835938 -3.796875 2.359375 -5.109375 L 59.3125 -132.375 C 59.96875 -133.8125 60.914062 -135.019531 62.15625 -136 C 63.40625 -136.988281 64.6875 -137.484375 66 -137.484375 L 77.96875 -137.484375 C 79.675781 -137.484375 81.148438 -136.988281 82.390625 -136 C 83.640625 -135.019531 84.523438 -133.8125 85.046875 -132.375 L 142 -5.109375 C 142.519531 -3.796875 142.519531 -2.613281 142 -1.5625 C 141.476562 -0.519531 140.429688 0 138.859375 0 L 110.1875 0 C 108.476562 0 107.035156 -0.488281 105.859375 -1.46875 C 104.679688 -2.457031 103.765625 -3.671875 103.109375 -5.109375 L 88.578125 -37.515625 L 26.125 -37.515625 L 40.65625 -5.109375 C 41.3125 -3.671875 41.28125 -2.457031 40.5625 -1.46875 C 39.84375 -0.488281 38.429688 0 36.328125 0 Z M 87.40625 -40.265625 L 54.203125 -114.703125 L 22.984375 -44.578125 L 24.9375 -40.265625 Z M 87.40625 -40.265625 "/></g></g></g></g></g></g></g><g fill="#02578e" fill-opacity="1"><g transform="translate(251.320136, 48.509855)"><g><path d="M -36.34375 0 L -5.5 0 C -3.925781 0 -2.878906 0.519531 -2.359375 1.5625 C -1.835938 2.613281 -1.835938 3.796875 -2.359375 5.109375 L -59.3125 132.390625 C -59.96875 133.828125 -60.914062 135.035156 -62.15625 136.015625 C -63.40625 137.003906 -64.6875 137.5 -66 137.5 L -77.984375 137.5 C -79.679688 137.5 -81.148438 137.003906 -82.390625 136.015625 C -83.640625 135.035156 -84.523438 133.828125 -85.046875 132.390625 L -142.015625 5.109375 C -142.535156 3.796875 -142.535156 2.613281 -142.015625 1.5625 C -141.492188 0.519531 -140.445312 0 -138.875 0 L -110.1875 0 C -108.488281 0 -107.050781 0.488281 -105.875 1.46875 C -104.695312 2.457031 -103.78125 3.671875 -103.125 5.109375 L -88.59375 37.515625 L -26.125 37.515625 L -40.65625 5.109375 C -41.3125 3.671875 -41.28125 2.457031 -40.5625 1.46875 C -39.84375 0.488281 -38.4375 0 -36.34375 0 Z M -87.40625 40.265625 L -54.21875 114.703125 L -22.984375 44.59375 L -24.953125 40.265625 Z M -87.40625 40.265625 "/></g></g></g><g fill="#ffffff" fill-opacity="1"><g transform="translate(53.753546, 254.442041)"><g><path d="M 26.265625 -8.875 L 7.734375 -8.875 L 3.75 0 L 0.09375 0 L 15.296875 -33.234375 L 18.75 -33.234375 L 33.953125 0 L 30.25 0 Z M 24.984375 -11.734375 L 17 -29.578125 L 9.015625 -11.734375 Z M 24.984375 -11.734375 "/></g></g></g><g fill="#ffffff" fill-opacity="1"><g transform="translate(87.798143, 254.442041)"><g><path d="M 26.359375 -17.140625 C 28.535156 -16.660156 30.21875 -15.71875 31.40625 -14.3125 C 32.59375 -12.90625 33.1875 -11.09375 33.1875 -8.875 C 33.1875 -6.03125 32.132812 -3.835938 30.03125 -2.296875 C 27.925781 -0.765625 24.816406 0 20.703125 0 L 5.40625 0 L 5.40625 -33.234375 L 19.75 -33.234375 C 23.457031 -33.234375 26.332031 -32.488281 28.375 -31 C 30.414062 -29.519531 31.4375 -27.414062 31.4375 -24.6875 C 31.4375 -22.851562 30.984375 -21.296875 30.078125 -20.015625 C 29.179688 -18.734375 27.941406 -17.773438 26.359375 -17.140625 Z M 8.921875 -30.34375 L 8.921875 -18.28125 L 19.515625 -18.28125 C 22.203125 -18.28125 24.273438 -18.796875 25.734375 -19.828125 C 27.191406 -20.859375 27.921875 -22.351562 27.921875 -24.3125 C 27.921875 -26.269531 27.191406 -27.765625 25.734375 -28.796875 C 24.273438 -29.828125 22.203125 -30.34375 19.515625 -30.34375 Z M 20.65625 -2.890625 C 23.632812 -2.890625 25.878906 -3.394531 27.390625 -4.40625 C 28.910156 -5.425781 29.671875 -7.015625 29.671875 -9.171875 C 29.671875 -13.316406 26.664062 -15.390625 20.65625 -15.390625 L 8.921875 -15.390625 L 8.921875 -2.890625 Z M 20.65625 -2.890625 "/></g></g></g><g fill="#ffffff" fill-opacity="1"><g transform="translate(123.599576, 254.442041)"><g><path d="M 5.40625 -33.234375 L 8.921875 -33.234375 L 8.921875 0 L 5.40625 0 Z M 5.40625 -33.234375 "/></g></g></g><g fill="#ffffff" fill-opacity="1"><g transform="translate(137.939147, 254.442041)"><g><path d="M 11.875 -30.203125 L 0.1875 -30.203125 L 0.1875 -33.234375 L 27.0625 -33.234375 L 27.0625 -30.203125 L 15.390625 -30.203125 L 15.390625 0 L 11.875 0 Z M 11.875 -30.203125 "/></g></g></g><g fill="#ffffff" fill-opacity="1"><g transform="translate(165.19382, 254.442041)"><g><path d="M 26.265625 -8.875 L 7.734375 -8.875 L 3.75 0 L 0.09375 0 L 15.296875 -33.234375 L 18.75 -33.234375 L 33.953125 0 L 30.25 0 Z M 24.984375 -11.734375 L 17 -29.578125 L 9.015625 -11.734375 Z M 24.984375 -11.734375 "/></g></g></g><g fill="#ffffff" fill-opacity="1"><g transform="translate(49.266528, 283.587568)"><g><path d="M 7.109375 0.109375 C 5.941406 0.109375 4.878906 -0.148438 3.921875 -0.671875 C 2.960938 -1.203125 2.210938 -1.925781 1.671875 -2.84375 C 1.140625 -3.757812 0.875 -4.785156 0.875 -5.921875 C 0.875 -7.066406 1.140625 -8.09375 1.671875 -9 C 2.210938 -9.914062 2.960938 -10.632812 3.921875 -11.15625 C 4.878906 -11.6875 5.941406 -11.953125 7.109375 -11.953125 C 8.285156 -11.953125 9.34375 -11.691406 10.28125 -11.171875 C 11.226562 -10.660156 11.972656 -9.941406 12.515625 -9.015625 C 13.054688 -8.097656 13.328125 -7.066406 13.328125 -5.921875 C 13.328125 -4.785156 13.054688 -3.753906 12.515625 -2.828125 C 11.972656 -1.910156 11.226562 -1.191406 10.28125 -0.671875 C 9.34375 -0.148438 8.285156 0.109375 7.109375 0.109375 Z M 7.109375 -1.015625 C 8.046875 -1.015625 8.894531 -1.222656 9.65625 -1.640625 C 10.414062 -2.066406 11.007812 -2.65625 11.4375 -3.40625 C 11.863281 -4.164062 12.078125 -5.003906 12.078125 -5.921875 C 12.078125 -6.847656 11.863281 -7.6875 11.4375 -8.4375 C 11.007812 -9.1875 10.414062 -9.773438 9.65625 -10.203125 C 8.894531 -10.628906 8.046875 -10.84375 7.109375 -10.84375 C 6.171875 -10.84375 5.320312 -10.628906 4.5625 -10.203125 C 3.800781 -9.773438 3.203125 -9.1875 2.765625 -8.4375 C 2.328125 -7.6875 2.109375 -6.847656 2.109375 -5.921875 C 2.109375 -5.003906 2.328125 -4.164062 2.765625 -3.40625 C 3.203125 -2.65625 3.800781 -2.066406 4.5625 -1.640625 C 5.320312 -1.222656 6.171875 -1.015625 7.109375 -1.015625 Z M 7.109375 -1.015625 "/></g></g></g><g fill="#ffffff" fill-opacity="1"><g transform="translate(65.080795, 283.587568)"><g><path d="M 4.625 -11.640625 C 4.101562 -11.640625 3.707031 -11.5 3.4375 -11.21875 C 3.175781 -10.9375 3.046875 -10.515625 3.046875 -9.953125 L 3.046875 -8.90625 L 5.796875 -8.90625 L 5.796875 -7.890625 L 3.078125 -7.890625 L 3.078125 0 L 1.875 0 L 1.875 -7.890625 L 0.28125 -7.890625 L 0.28125 -8.90625 L 1.875 -8.90625 L 1.875 -10.015625 C 1.875 -10.828125 2.109375 -11.46875 2.578125 -11.9375 C 3.046875 -12.414062 3.710938 -12.65625 4.578125 -12.65625 C 4.910156 -12.65625 5.234375 -12.601562 5.546875 -12.5 C 5.867188 -12.40625 6.132812 -12.269531 6.34375 -12.09375 L 5.9375 -11.203125 C 5.59375 -11.492188 5.15625 -11.640625 4.625 -11.640625 Z M 4.625 -11.640625 "/></g></g></g><g fill="#ffffff" fill-opacity="1"><g transform="translate(72.429962, 283.587568)"><g><path d="M 4.625 -11.640625 C 4.101562 -11.640625 3.707031 -11.5 3.4375 -11.21875 C 3.175781 -10.9375 3.046875 -10.515625 3.046875 -9.953125 L 3.046875 -8.90625 L 5.796875 -8.90625 L 5.796875 -7.890625 L 3.078125 -7.890625 L 3.078125 0 L 1.875 0 L 1.875 -7.890625 L 0.28125 -7.890625 L 0.28125 -8.90625 L 1.875 -8.90625 L 1.875 -10.015625 C 1.875 -10.828125 2.109375 -11.46875 2.578125 -11.9375 C 3.046875 -12.414062 3.710938 -12.65625 4.578125 -12.65625 C 4.910156 -12.65625 5.234375 -12.601562 5.546875 -12.5 C 5.867188 -12.40625 6.132812 -12.269531 6.34375 -12.09375 L 5.9375 -11.203125 C 5.59375 -11.492188 5.15625 -11.640625 4.625 -11.640625 Z M 4.625 -11.640625 "/></g></g></g><g fill="#ffffff" fill-opacity="1"><g transform="translate(79.779129, 283.587568)"><g><path d="M 1.671875 -8.90625 L 2.875 -8.90625 L 2.875 0 L 1.671875 0 Z M 2.296875 -10.859375 C 2.046875 -10.859375 1.832031 -10.941406 1.65625 -11.109375 C 1.488281 -11.273438 1.40625 -11.476562 1.40625 -11.71875 C 1.40625 -11.945312 1.488281 -12.144531 1.65625 -12.3125 C 1.832031 -12.476562 2.046875 -12.5625 2.296875 -12.5625 C 2.546875 -12.5625 2.753906 -12.476562 2.921875 -12.3125 C 3.085938 -12.15625 3.171875 -11.960938 3.171875 -11.734375 C 3.171875 -11.484375 3.085938 -11.273438 2.921875 -11.109375 C 2.753906 -10.941406 2.546875 -10.859375 2.296875 -10.859375 Z M 2.296875 -10.859375 "/></g></g></g><g fill="#ffffff" fill-opacity="1"><g transform="translate(85.943168, 283.587568)"><g><path d="M 5.375 0.078125 C 4.488281 0.078125 3.695312 -0.109375 3 -0.484375 C 2.3125 -0.867188 1.769531 -1.410156 1.375 -2.109375 C 0.976562 -2.804688 0.78125 -3.585938 0.78125 -4.453125 C 0.78125 -5.328125 0.976562 -6.109375 1.375 -6.796875 C 1.769531 -7.484375 2.3125 -8.019531 3 -8.40625 C 3.695312 -8.789062 4.488281 -8.984375 5.375 -8.984375 C 6.132812 -8.984375 6.816406 -8.832031 7.421875 -8.53125 C 8.023438 -8.226562 8.503906 -7.789062 8.859375 -7.21875 L 7.953125 -6.609375 C 7.660156 -7.046875 7.289062 -7.375 6.84375 -7.59375 C 6.394531 -7.8125 5.90625 -7.921875 5.375 -7.921875 C 4.726562 -7.921875 4.144531 -7.773438 3.625 -7.484375 C 3.113281 -7.203125 2.710938 -6.796875 2.421875 -6.265625 C 2.140625 -5.734375 2 -5.128906 2 -4.453125 C 2 -3.765625 2.140625 -3.15625 2.421875 -2.625 C 2.710938 -2.101562 3.113281 -1.695312 3.625 -1.40625 C 4.144531 -1.125 4.726562 -0.984375 5.375 -0.984375 C 5.90625 -0.984375 6.394531 -1.085938 6.84375 -1.296875 C 7.289062 -1.515625 7.660156 -1.84375 7.953125 -2.28125 L 8.859375 -1.671875 C 8.503906 -1.097656 8.019531 -0.660156 7.40625 -0.359375 C 6.800781 -0.0664062 6.125 0.078125 5.375 0.078125 Z M 5.375 0.078125 "/></g></g></g><g fill="#ffffff" fill-opacity="1"><g transform="translate(97.084704, 283.587568)"><g><path d="M 9.4375 -4.078125 L 1.984375 -4.078125 C 2.046875 -3.148438 2.398438 -2.398438 3.046875 -1.828125 C 3.691406 -1.265625 4.503906 -0.984375 5.484375 -0.984375 C 6.035156 -0.984375 6.539062 -1.082031 7 -1.28125 C 7.46875 -1.476562 7.875 -1.769531 8.21875 -2.15625 L 8.890625 -1.375 C 8.492188 -0.894531 8 -0.53125 7.40625 -0.28125 C 6.8125 -0.0390625 6.160156 0.078125 5.453125 0.078125 C 4.535156 0.078125 3.722656 -0.113281 3.015625 -0.5 C 2.316406 -0.882812 1.769531 -1.421875 1.375 -2.109375 C 0.976562 -2.804688 0.78125 -3.585938 0.78125 -4.453125 C 0.78125 -5.328125 0.96875 -6.109375 1.34375 -6.796875 C 1.71875 -7.484375 2.234375 -8.019531 2.890625 -8.40625 C 3.554688 -8.789062 4.300781 -8.984375 5.125 -8.984375 C 5.957031 -8.984375 6.695312 -8.789062 7.34375 -8.40625 C 8 -8.019531 8.515625 -7.484375 8.890625 -6.796875 C 9.265625 -6.117188 9.453125 -5.335938 9.453125 -4.453125 Z M 5.125 -7.9375 C 4.269531 -7.9375 3.550781 -7.660156 2.96875 -7.109375 C 2.382812 -6.566406 2.054688 -5.859375 1.984375 -4.984375 L 8.296875 -4.984375 C 8.222656 -5.859375 7.894531 -6.566406 7.3125 -7.109375 C 6.726562 -7.660156 6 -7.9375 5.125 -7.9375 Z M 5.125 -7.9375 "/></g></g></g><g fill="#ffffff" fill-opacity="1"><g transform="translate(108.920379, 283.587568)"><g/></g></g><g fill="#ffffff" fill-opacity="1"><g transform="translate(114.965912, 283.587568)"><g><path d="M 10.421875 0.1875 L 8.78125 -1.5 C 7.769531 -0.425781 6.445312 0.109375 4.8125 0.109375 C 4.039062 0.109375 3.351562 -0.015625 2.75 -0.265625 C 2.144531 -0.523438 1.671875 -0.882812 1.328125 -1.34375 C 0.992188 -1.800781 0.828125 -2.320312 0.828125 -2.90625 C 0.828125 -3.625 1.050781 -4.265625 1.5 -4.828125 C 1.957031 -5.390625 2.726562 -5.984375 3.8125 -6.609375 C 3.25 -7.191406 2.859375 -7.6875 2.640625 -8.09375 C 2.429688 -8.507812 2.328125 -8.953125 2.328125 -9.421875 C 2.328125 -10.171875 2.597656 -10.773438 3.140625 -11.234375 C 3.679688 -11.703125 4.40625 -11.9375 5.3125 -11.9375 C 6.164062 -11.9375 6.835938 -11.726562 7.328125 -11.3125 C 7.828125 -10.894531 8.078125 -10.320312 8.078125 -9.59375 C 8.078125 -9 7.878906 -8.46875 7.484375 -8 C 7.085938 -7.53125 6.40625 -7.015625 5.4375 -6.453125 L 8.6875 -3.09375 C 9.050781 -3.738281 9.316406 -4.503906 9.484375 -5.390625 L 10.46875 -5.078125 C 10.25 -4.015625 9.898438 -3.109375 9.421875 -2.359375 L 11.109375 -0.609375 Z M 5.3125 -11.046875 C 4.726562 -11.046875 4.269531 -10.894531 3.9375 -10.59375 C 3.601562 -10.300781 3.4375 -9.914062 3.4375 -9.4375 C 3.4375 -9.082031 3.523438 -8.742188 3.703125 -8.421875 C 3.890625 -8.109375 4.25 -7.679688 4.78125 -7.140625 C 5.632812 -7.640625 6.222656 -8.0625 6.546875 -8.40625 C 6.878906 -8.757812 7.046875 -9.144531 7.046875 -9.5625 C 7.046875 -10.019531 6.890625 -10.378906 6.578125 -10.640625 C 6.273438 -10.910156 5.851562 -11.046875 5.3125 -11.046875 Z M 4.875 -0.890625 C 6.1875 -0.890625 7.25 -1.335938 8.0625 -2.234375 L 4.484375 -5.90625 C 3.546875 -5.375 2.898438 -4.894531 2.546875 -4.46875 C 2.191406 -4.039062 2.015625 -3.5625 2.015625 -3.03125 C 2.015625 -2.382812 2.273438 -1.863281 2.796875 -1.46875 C 3.328125 -1.082031 4.019531 -0.890625 4.875 -0.890625 Z M 4.875 -0.890625 "/></g></g></g><g fill="#ffffff" fill-opacity="1"><g transform="translate(127.902047, 283.587568)"><g/></g></g><g fill="#ffffff" fill-opacity="1"><g transform="translate(133.947579, 283.587568)"><g><path d="M 1.9375 -11.859375 L 6.765625 -11.859375 C 8.015625 -11.859375 9.117188 -11.601562 10.078125 -11.09375 C 11.035156 -10.59375 11.78125 -9.894531 12.3125 -9 C 12.84375 -8.101562 13.109375 -7.078125 13.109375 -5.921875 C 13.109375 -4.773438 12.84375 -3.75 12.3125 -2.84375 C 11.78125 -1.945312 11.035156 -1.25 10.078125 -0.75 C 9.117188 -0.25 8.015625 0 6.765625 0 L 1.9375 0 Z M 6.6875 -1.078125 C 7.726562 -1.078125 8.632812 -1.285156 9.40625 -1.703125 C 10.1875 -2.117188 10.789062 -2.6875 11.21875 -3.40625 C 11.65625 -4.132812 11.875 -4.972656 11.875 -5.921875 C 11.875 -6.867188 11.65625 -7.707031 11.21875 -8.4375 C 10.789062 -9.164062 10.1875 -9.734375 9.40625 -10.140625 C 8.632812 -10.554688 7.726562 -10.765625 6.6875 -10.765625 L 3.1875 -10.765625 L 3.1875 -1.078125 Z M 6.6875 -1.078125 "/></g></g></g><g fill="#ffffff" fill-opacity="1"><g transform="translate(149.54176, 283.587568)"><g><path d="M 9.4375 -4.078125 L 1.984375 -4.078125 C 2.046875 -3.148438 2.398438 -2.398438 3.046875 -1.828125 C 3.691406 -1.265625 4.503906 -0.984375 5.484375 -0.984375 C 6.035156 -0.984375 6.539062 -1.082031 7 -1.28125 C 7.46875 -1.476562 7.875 -1.769531 8.21875 -2.15625 L 8.890625 -1.375 C 8.492188 -0.894531 8 -0.53125 7.40625 -0.28125 C 6.8125 -0.0390625 6.160156 0.078125 5.453125 0.078125 C 4.535156 0.078125 3.722656 -0.113281 3.015625 -0.5 C 2.316406 -0.882812 1.769531 -1.421875 1.375 -2.109375 C 0.976562 -2.804688 0.78125 -3.585938 0.78125 -4.453125 C 0.78125 -5.328125 0.96875 -6.109375 1.34375 -6.796875 C 1.71875 -7.484375 2.234375 -8.019531 2.890625 -8.40625 C 3.554688 -8.789062 4.300781 -8.984375 5.125 -8.984375 C 5.957031 -8.984375 6.695312 -8.789062 7.34375 -8.40625 C 8 -8.019531 8.515625 -7.484375 8.890625 -6.796875 C 9.265625 -6.117188 9.453125 -5.335938 9.453125 -4.453125 Z M 5.125 -7.9375 C 4.269531 -7.9375 3.550781 -7.660156 2.96875 -7.109375 C 2.382812 -6.566406 2.054688 -5.859375 1.984375 -4.984375 L 8.296875 -4.984375 C 8.222656 -5.859375 7.894531 -6.566406 7.3125 -7.109375 C 6.726562 -7.660156 6 -7.9375 5.125 -7.9375 Z M 5.125 -7.9375 "/></g></g></g><g fill="#ffffff" fill-opacity="1"><g transform="translate(161.377435, 283.587568)"><g><path d="M 4.0625 0.078125 C 3.34375 0.078125 2.648438 -0.0234375 1.984375 -0.234375 C 1.328125 -0.441406 0.8125 -0.703125 0.4375 -1.015625 L 0.984375 -1.96875 C 1.359375 -1.675781 1.828125 -1.4375 2.390625 -1.25 C 2.953125 -1.0625 3.539062 -0.96875 4.15625 -0.96875 C 4.96875 -0.96875 5.566406 -1.09375 5.953125 -1.34375 C 6.335938 -1.601562 6.53125 -1.960938 6.53125 -2.421875 C 6.53125 -2.742188 6.421875 -3 6.203125 -3.1875 C 5.992188 -3.375 5.722656 -3.515625 5.390625 -3.609375 C 5.066406 -3.710938 4.632812 -3.804688 4.09375 -3.890625 C 3.375 -4.023438 2.789062 -4.160156 2.34375 -4.296875 C 1.90625 -4.441406 1.53125 -4.679688 1.21875 -5.015625 C 0.914062 -5.359375 0.765625 -5.832031 0.765625 -6.4375 C 0.765625 -7.175781 1.070312 -7.785156 1.6875 -8.265625 C 2.3125 -8.742188 3.175781 -8.984375 4.28125 -8.984375 C 4.863281 -8.984375 5.441406 -8.90625 6.015625 -8.75 C 6.585938 -8.59375 7.0625 -8.390625 7.4375 -8.140625 L 6.90625 -7.1875 C 6.175781 -7.6875 5.300781 -7.9375 4.28125 -7.9375 C 3.519531 -7.9375 2.941406 -7.800781 2.546875 -7.53125 C 2.160156 -7.257812 1.96875 -6.90625 1.96875 -6.46875 C 1.96875 -6.132812 2.078125 -5.863281 2.296875 -5.65625 C 2.515625 -5.457031 2.785156 -5.304688 3.109375 -5.203125 C 3.441406 -5.109375 3.894531 -5.007812 4.46875 -4.90625 C 5.175781 -4.769531 5.742188 -4.632812 6.171875 -4.5 C 6.609375 -4.363281 6.976562 -4.128906 7.28125 -3.796875 C 7.582031 -3.472656 7.734375 -3.023438 7.734375 -2.453125 C 7.734375 -1.671875 7.410156 -1.050781 6.765625 -0.59375 C 6.117188 -0.144531 5.21875 0.078125 4.0625 0.078125 Z M 4.0625 0.078125 "/></g></g></g><g fill="#ffffff" fill-opacity="1"><g transform="translate(171.266128, 283.587568)"><g><path d="M 1.671875 -8.90625 L 2.875 -8.90625 L 2.875 0 L 1.671875 0 Z M 2.296875 -10.859375 C 2.046875 -10.859375 1.832031 -10.941406 1.65625 -11.109375 C 1.488281 -11.273438 1.40625 -11.476562 1.40625 -11.71875 C 1.40625 -11.945312 1.488281 -12.144531 1.65625 -12.3125 C 1.832031 -12.476562 2.046875 -12.5625 2.296875 -12.5625 C 2.546875 -12.5625 2.753906 -12.476562 2.921875 -12.3125 C 3.085938 -12.15625 3.171875 -11.960938 3.171875 -11.734375 C 3.171875 -11.484375 3.085938 -11.273438 2.921875 -11.109375 C 2.753906 -10.941406 2.546875 -10.859375 2.296875 -10.859375 Z M 2.296875 -10.859375 "/></g></g></g><g fill="#ffffff" fill-opacity="1"><g transform="translate(177.430167, 283.587568)"><g><path d="M 9.921875 -8.90625 L 9.921875 -1.078125 C 9.921875 0.429688 9.550781 1.550781 8.8125 2.28125 C 8.070312 3.007812 6.957031 3.375 5.46875 3.375 C 4.644531 3.375 3.863281 3.25 3.125 3 C 2.382812 2.757812 1.785156 2.425781 1.328125 2 L 1.9375 1.078125 C 2.363281 1.460938 2.882812 1.757812 3.5 1.96875 C 4.113281 2.1875 4.757812 2.296875 5.4375 2.296875 C 6.5625 2.296875 7.390625 2.035156 7.921875 1.515625 C 8.453125 0.992188 8.71875 0.175781 8.71875 -0.9375 L 8.71875 -2.0625 C 8.34375 -1.5 7.851562 -1.070312 7.25 -0.78125 C 6.644531 -0.488281 5.976562 -0.34375 5.25 -0.34375 C 4.414062 -0.34375 3.65625 -0.523438 2.96875 -0.890625 C 2.289062 -1.253906 1.753906 -1.765625 1.359375 -2.421875 C 0.972656 -3.085938 0.78125 -3.835938 0.78125 -4.671875 C 0.78125 -5.503906 0.972656 -6.25 1.359375 -6.90625 C 1.753906 -7.5625 2.289062 -8.070312 2.96875 -8.4375 C 3.644531 -8.800781 4.40625 -8.984375 5.25 -8.984375 C 6.007812 -8.984375 6.691406 -8.828125 7.296875 -8.515625 C 7.910156 -8.210938 8.40625 -7.773438 8.78125 -7.203125 L 8.78125 -8.90625 Z M 5.375 -1.40625 C 6.007812 -1.40625 6.585938 -1.539062 7.109375 -1.8125 C 7.628906 -2.09375 8.03125 -2.476562 8.3125 -2.96875 C 8.601562 -3.46875 8.75 -4.035156 8.75 -4.671875 C 8.75 -5.304688 8.601562 -5.867188 8.3125 -6.359375 C 8.03125 -6.847656 7.628906 -7.226562 7.109375 -7.5 C 6.597656 -7.78125 6.019531 -7.921875 5.375 -7.921875 C 4.726562 -7.921875 4.144531 -7.785156 3.625 -7.515625 C 3.113281 -7.242188 2.710938 -6.859375 2.421875 -6.359375 C 2.140625 -5.867188 2 -5.304688 2 -4.671875 C 2 -4.035156 2.140625 -3.46875 2.421875 -2.96875 C 2.710938 -2.476562 3.113281 -2.09375 3.625 -1.8125 C 4.144531 -1.539062 4.726562 -1.40625 5.375 -1.40625 Z M 5.375 -1.40625 "/></g></g></g><g fill="#ffffff" fill-opacity="1"><g transform="translate(190.654118, 283.587568)"><g><path d="M 6.21875 -8.984375 C 7.332031 -8.984375 8.21875 -8.65625 8.875 -8 C 9.539062 -7.351562 9.875 -6.410156 9.875 -5.171875 L 9.875 0 L 8.671875 0 L 8.671875 -5.046875 C 8.671875 -5.972656 8.4375 -6.675781 7.96875 -7.15625 C 7.507812 -7.644531 6.851562 -7.890625 6 -7.890625 C 5.039062 -7.890625 4.28125 -7.601562 3.71875 -7.03125 C 3.15625 -6.46875 2.875 -5.679688 2.875 -4.671875 L 2.875 0 L 1.671875 0 L 1.671875 -8.90625 L 2.828125 -8.90625 L 2.828125 -7.265625 C 3.148438 -7.804688 3.601562 -8.226562 4.1875 -8.53125 C 4.769531 -8.832031 5.445312 -8.984375 6.21875 -8.984375 Z M 6.21875 -8.984375 "/></g></g></g></g></g></svg>